#!OML:ASF H:\Pregnant\Project 1\Capture day 1\Session 1\femalepreg.ASF
:FULLY-SPECIFIED
:DEGREES
340
root 3.63954 16.028 10.6469 24.8679 -10.9731 0.371177
lowerback -12.6914 -1.82807 -3.76808
upperback -6.69291 -2.0769 1.59263
thorax 0.272569 -0.945798 3.51746
lowerneck -22.9299 -5.91083 -4.44722
upperneck 18.8867 -8.14102 6.0171
head 10.2511 -3.35354 1.59374
rclavicle -4.05769e-014 -2.26615e-014
rhumerus -40.3509 35.5463 -94.2036
rradius 48.3667
rwrist -13.384
rhand -16.3249 -16.9378
rfingers 7.12502
rthumb 9.88668 -46.6856
lclavicle -4.05769e-014 -2.26615e-014
lhumerus -41.3034 -11.1149 83.9143
lradius 52.4788
lwrist 38.9508
lhand -29.2931 -0.0785224
lfingers 7.12502
lthumb -2.63476 29.885
rfemur -42.5149 15.3626 6.0829
rtibia 32.9679
rfoot -8.62372 -20.5915
rtoes -16.9952
lfemur -21.7139 -5.36924 -15.5492
ltibia 3.61788e-014
lfoot 3.1829 19.0674
ltoes -10.8233
341
root 3.63627 16.0342 10.6821 24.6406 -11.0493 0.352823
lowerback -12.8997 -1.80062 -3.70442
upperback -6.7252 -2.04049 1.5868
thorax 0.345218 -0.930179 3.47584
lowerneck -22.7713 -5.83158 -4.361
upperneck 19.1736 -8.04512 5.84623
head 10.3082 -3.32267 1.53754
rclavicle -9.42985e-015 3.77691e-015
rhumerus -40.4118 35.423 -94.3077
rradius 48.6322
rwrist -13.1655
rhand -16.4374 -16.7709
rfingers 7.12502
rthumb 9.77817 -46.5239
lclavicle -9.42985e-015 3.77691e-015
lhumerus -41.3858 -11.1446 83.9725
lradius 52.9152
lwrist 38.7453
lhand -29.104 -0.422972
lfingers 7.12502
lthumb -2.45217 29.5427
rfemur -41.9752 15.6208 6.12099
rtibia 32.6743
rfoot -8.63097 -20.7349
rtoes -17.0122
lfemur -21.259 -5.32623 -15.6215
ltibia -4.45278e-014
lfoot 2.89757 19.1156
ltoes -10.5378
342
root 3.63332 16.0393 10.7165 24.4103 -11.1271 0.334281
lowerback -13.0926 -1.77177 -3.63815
upperback -6.75324 -2.0033 1.58157
thorax 0.413934 -0.914171 3.43397
lowerneck -22.627 -5.74768 -4.26917
upperneck 19.458 -7.94291 5.67497
head 10.3668 -3.28834 1.4809
rclavicle -2.59041e-014 -3.52843e-014
rhumerus -40.456 35.2889 -94.4026
rradius 48.8494
rwrist -12.9656
rhand -16.5253 -16.5905
rfingers 7.12502
rthumb 9.69334 -46.3474
lclavicle -2.59041e-014 -3.52843e-014
lhumerus -41.4581 -11.1634 84.0401
lradius 53.2898
lwrist 38.5675
lhand -28.8991 -0.745641
lfingers 7.12502
lthumb -2.25427 29.2222
rfemur -41.4467 15.8751 6.16184
rtibia 32.3962
rfoot -8.63831 -20.8727
rtoes -17.0387
lfemur -20.8059 -5.28129 -15.6942
ltibia 6.83819e-014
lfoot 2.61364 19.1621
ltoes -10.2208
343
root 3.63068 16.0438 10.7503 24.1862 -11.2026 0.312693
lowerback -13.2792 -1.73973 -3.56229
upperback -6.78118 -1.96346 1.57353
thorax 0.478738 -0.896992 3.38441
lowerneck -22.4908 -5.66013 -4.16322
upperneck 19.7381 -7.8379 5.49983
head 10.4247 -3.25209 1.42076
rclavicle -2.09966e-014 5.86415e-015
rhumerus -40.4873 35.1287 -94.4912
rradius 49.0192
rwrist -12.7807
rhand -16.5689 -16.4106
rfingers 7.12502
rthumb 9.65127 -46.1695
lclavicle -2.09966e-014 5.86415e-015
lhumerus -41.5235 -11.1825 84.1157
lradius 53.5992
lwrist 38.4128
lhand -28.6818 -1.03685
lfingers 7.12502
lthumb -2.0444 28.9331
rfemur -40.9331 16.123 6.20761
rtibia 32.1316
rfoot -8.64721 -21.0063
rtoes -17.0731
lfemur -20.3622 -5.23638 -15.7627
ltibia 1.59028e-014
lfoot 2.33014 19.2093
ltoes -9.8774
344
root 3.62809 16.0479 10.783 23.9795 -11.2698 0.290023
lowerback -13.4683 -1.70784 -3.48139
upperback -6.81086 -1.92463 1.56471
thorax 0.543021 -0.880385 3.33121
lowerneck -22.3659 -5.56898 -4.05069
upperneck 20.0118 -7.72908 5.3277
head 10.4825 -3.21315 1.36086
rclavicle -3.21161e-014 -1.05356e-014
rhumerus -40.5025 34.9429 -94.5685
rradius 49.1428
rwrist -12.6129
rhand -16.5719 -16.2345
rfingers 7.12502
rthumb 9.64839 -45.9935
lclavicle -3.21161e-014 -1.05356e-014
lhumerus -41.5755 -11.2008 84.1982
lradius 53.8396
lwrist 38.2821
lhand -28.4519 -1.2949
lfingers 7.12502
lthumb -1.82237 28.6771
rfemur -40.4463 16.3601 6.2548
rtibia 31.8804
rfoot -8.65625 -21.1408
rtoes -17.1145
lfemur -19.9445 -5.19623 -15.8236
ltibia 9.54166e-015
lfoot 2.05484 19.2554
ltoes -9.53933
